<?xml version="1.0" encoding="UTF-8"?>
<svg version="1.1" xmlns="http://www.w3.org/2000/svg" width="1536" height="1024">
<path d="M0 0 C506.88 0 1013.76 0 1536 0 C1536 337.92 1536 675.84 1536 1024 C1029.12 1024 522.24 1024 0 1024 C0 686.08 0 348.16 0 0 Z " fill="#FEFEFE" transform="translate(0,0)"/>
<path d="M0 0 C1.00581619 0.00406357 1.00581619 0.00406357 2.0319519 0.00820923 C13.33791077 0.07712653 23.91832021 1.15017973 34.75 4.4375 C35.96945312 4.79972656 37.18890625 5.16195313 38.4453125 5.53515625 C68.71549435 15.52363907 93.06390047 36.18848038 107.91186523 64.34790039 C117.61266141 83.86105314 121.55639 104.78443519 120.75 126.4375 C118.9373655 126.29334802 117.12489978 126.14707364 115.3125 126 C113.79849609 125.87818359 113.79849609 125.87818359 112.25390625 125.75390625 C109.64581313 125.51839282 107.06292928 125.23422261 104.46484375 124.91796875 C89.95995314 123.29274955 75.96543156 124.43248544 61.75 127.4375 C59.75178965 127.78139897 57.75237274 128.11872969 55.75 128.4375 C55.59144531 127.42171875 55.43289063 126.4059375 55.26953125 125.359375 C53.11341556 112.32250732 49.70038213 101.49936749 40.75 91.4375 C40.25113281 90.83421875 39.75226563 90.2309375 39.23828125 89.609375 C29.6771363 78.91630609 15.15481628 73.54243624 1.21875 72.0625 C-14.6994721 71.48887037 -29.0048355 76.84110217 -41 87.125 C-52.29546316 97.92166066 -58.45286303 111.69136699 -59.20703125 127.3046875 C-59.22121094 128.00851562 -59.23539062 128.71234375 -59.25 129.4375 C-60.84328125 129.13005859 -60.84328125 129.13005859 -62.46875 128.81640625 C-63.89580811 128.54413858 -65.32289288 128.27201067 -66.75 128 C-67.79414063 127.79793945 -67.79414063 127.79793945 -68.859375 127.59179688 C-78.42139694 125.77678345 -87.51561948 125.28195278 -97.25 125.3125 C-98.48234375 125.30863281 -99.7146875 125.30476563 -100.984375 125.30078125 C-107.16707186 125.30741504 -113.13958448 125.47510956 -119.25 126.4375 C-120.20832639 94.4222999 -111.77967737 64.16869049 -89.6875 40.125 C-87.88685588 38.21745588 -86.06863929 36.32800042 -84.25 34.4375 C-83.69054687 33.80328125 -83.13109375 33.1690625 -82.5546875 32.515625 C-62.48797799 10.45275067 -28.94300848 -0.2280701 0 0 Z " fill="#FEBC1C" transform="translate(412.25,382.5625)"/>
<path d="M0 0 C0.74604492 0.21430664 1.49208984 0.42861328 2.26074219 0.64941406 C22.15956457 6.46912074 39.32616827 16.36742822 57 27 C85.04373576 43.85792241 115.34484158 52.23590777 147.96191406 44.52685547 C152.93742803 43.24066008 157.83368678 41.71333728 162.70703125 40.0859375 C165.13695828 39.28460925 167.50862491 38.56479536 170 38 C166.73567755 49.01296664 159.32578441 58.34086152 152 67 C151.48695313 67.63550781 150.97390625 68.27101563 150.4453125 68.92578125 C134.92177044 87.84772036 111.49435363 99.56059883 88 105 C86.948125 105.24492188 85.89625 105.48984375 84.8125 105.7421875 C53.04181308 111.54033786 20.0474055 104.88419801 -6.625 86.6875 C-12.50172513 82.56561821 -17.81829519 77.95796972 -23 73 C-23.67417969 72.38898438 -24.34835937 71.77796875 -25.04296875 71.1484375 C-35.85554465 61.00490322 -42.91097303 48.33982534 -49 35 C-49.40992188 34.12988281 -49.81984375 33.25976562 -50.2421875 32.36328125 C-54.69999241 22.18635453 -58.129121 9.15605418 -58 -2 C-48.72851287 -11.27148713 -11.36421577 -3.37688365 0 0 Z " fill="#057DD5" transform="translate(351,519)"/>
<path d="M0 0 C0.74604492 0.21430664 1.49208984 0.42861328 2.26074219 0.64941406 C22.15956457 6.46912074 39.32616827 16.36742822 57 27 C85.04373576 43.85792241 115.34484158 52.23590777 147.96191406 44.52685547 C152.93742803 43.24066008 157.83368678 41.71333728 162.70703125 40.0859375 C165.13695828 39.28460925 167.50862491 38.56479536 170 38 C169.91015625 39.7578125 169.91015625 39.7578125 169 42 C166.81184248 43.49923691 164.78941352 44.69229162 162.4375 45.875 C161.76493164 46.22087158 161.09236328 46.56674316 160.39941406 46.9230957 C147.2004141 53.54860206 133.33267856 57.6154727 119 61 C118.00097656 61.24878906 117.00195312 61.49757813 115.97265625 61.75390625 C99.28207179 65.2586839 81.23104436 63.87874281 65 59 C63.89785156 58.67257812 62.79570312 58.34515625 61.66015625 58.0078125 C53.79324047 55.3950429 46.31072533 51.94022882 38.75 48.5625 C17.21913693 38.95806988 -4.5959741 31.79087609 -28.375 31.875 C-30.00308594 31.86919922 -30.00308594 31.86919922 -31.6640625 31.86328125 C-37.86006717 31.87076435 -43.85722139 32.18527357 -50 33 C-52.93731839 25.02396154 -55.37905914 17.18522187 -56.875 8.8125 C-57.00688721 8.09457275 -57.13877441 7.37664551 -57.2746582 6.63696289 C-57.85097278 3.17948621 -58.25613816 0.32962649 -57 -3 C-38.37207596 -5.88205617 -18.09051714 -5.37560822 0 0 Z " fill="#1BA9F3" transform="translate(351,519)"/>
<path d="M0 0 C10.6582853 7.93770197 18.48940954 18.77651731 21 32 C21.12248809 35.67083489 21.09186308 39.32874301 21 43 C20.44465576 43.17426514 19.88931152 43.34853027 19.31713867 43.52807617 C3.29693984 48.63556401 -11.46847065 55.236173 -26.43237305 62.82006836 C-30.7764928 64.81637251 -30.7764928 64.81637251 -33 65 C-35.46337891 63.93945312 -35.46337891 63.93945312 -38.2265625 62.28125 C-39.25072266 61.68143311 -40.27488281 61.08161621 -41.33007812 60.46362305 C-42.96106445 59.49162964 -42.96106445 59.49162964 -44.625 58.5 C-53.81018087 53.16707759 -62.83760705 48.6780459 -72.84375 45.13671875 C-76 44 -76 44 -77 43 C-77.98419769 31.18962771 -73.71782648 20.56063467 -67 11 C-66.56042969 10.36449219 -66.12085938 9.72898437 -65.66796875 9.07421875 C-50.21137634 -11.01489703 -20.35194998 -12.84034699 0 0 Z " fill="#FE8B2C" transform="translate(438,471)"/>
<path d="M0 0 C39.73960613 0 39.73960613 0 50 9 C58.02355219 18.1672211 60.9237846 29.02408429 60.37109375 41 C59.4990057 52.32356073 55.63261675 60.54898135 47 68 C33.16225688 78.09845625 16.70249318 75 0 75 C0 50.25 0 25.5 0 0 Z " fill="#1E2021" transform="translate(1263,462)"/>
<path d="M0 0 C5.28 0 10.56 0 16 0 C19.77750851 11.68666695 23.10728487 23.46949222 26.3203125 35.32104492 C26.65289063 36.54283447 26.98546875 37.76462402 27.328125 39.0234375 C27.77526855 40.67738525 27.77526855 40.67738525 28.23144531 42.36474609 C28.89973907 44.94856684 28.89973907 44.94856684 30 47 C34.62 31.49 39.24 15.98 44 0 C48.62 0 53.24 0 58 0 C64.93 23.265 64.93 23.265 72 47 C74.34434465 40.89183687 74.34434465 40.89183687 76.24267578 34.72705078 C76.53780563 33.62648849 76.53780563 33.62648849 76.83889771 32.50369263 C77.03901459 31.74192719 77.23913147 30.98016174 77.4453125 30.1953125 C77.66065643 29.39012177 77.87600037 28.58493103 78.09786987 27.75534058 C78.77736289 25.21288387 79.45157004 22.66906874 80.125 20.125 C80.80622948 17.55969266 81.48862505 14.9947117 82.17355347 12.4303894 C82.59767496 10.84174991 83.01956788 9.25251341 83.43899536 7.66262817 C84.88811748 2.22376503 84.88811748 2.22376503 86 0 C91.28 0 96.56 0 102 0 C90.48455548 40.58996259 90.48455548 40.58996259 84.8125 59.5 C84.43875244 60.7492627 84.06500488 61.99852539 83.67993164 63.28564453 C81.13039735 71.73920531 81.13039735 71.73920531 80 74 C74.72 74 69.44 74 64 74 C62.96939453 70.38417969 62.96939453 70.38417969 61.91796875 66.6953125 C61.24292022 64.32872948 60.56763793 61.96221328 59.89233398 59.59570312 C59.42757199 57.96654088 58.96304831 56.33731062 58.4987793 54.70800781 C54.83095054 41.83012809 54.83095054 41.83012809 51 29 C49.23994992 31.64007512 48.50763692 33.23358411 47.67138672 36.19604492 C47.43128876 37.03668991 47.1911908 37.8773349 46.94381714 38.74345398 C46.69165436 39.64666885 46.43949158 40.54988373 46.1796875 41.48046875 C45.91616486 42.40845779 45.65264221 43.33644684 45.38113403 44.29255676 C44.54078689 47.25615774 43.70781292 50.22177399 42.875 53.1875 C42.30647403 55.19740272 41.73746943 57.20717012 41.16796875 59.21679688 C39.7730876 64.14297837 38.38481543 69.07097988 37 74 C32.05 74 27.1 74 22 74 C17.17685304 60.00940393 12.89834902 45.8731724 8.71142578 31.68066406 C7.6101981 27.94985314 6.50265021 24.22095671 5.39453125 20.4921875 C4.69233701 18.11990155 3.99050034 15.74750972 3.2890625 13.375 C2.95790436 12.26060547 2.62674622 11.14621094 2.28555298 9.99804688 C1.9845871 8.97517578 1.68362122 7.95230469 1.37353516 6.8984375 C1.1073941 5.99786621 0.84125305 5.09729492 0.56704712 4.16943359 C0 2 0 2 0 0 Z " fill="#1E1F20" transform="translate(903,462)"/>
<path d="M0 0 C-0.33543043 9.94551222 -1.47434516 20.94869031 -6 30 C-8.67513223 31.22171393 -11.31974371 32.32594413 -14.0625 33.375 C-14.86727783 33.68518066 -15.67205566 33.99536133 -16.5012207 34.31494141 C-45.88436688 45.34478066 -75.03747221 44.72011181 -103.59765625 32.09765625 C-108.20162477 29.97553881 -112.60675965 27.52496255 -117 25 C-117 24.34 -117 23.68 -117 23 C-80.37788894 4.00701551 -41.4422972 -9.4596548 0 0 Z " fill="#1C8BD8" transform="translate(532,517)"/>
<path d="M0 0 C0 6.39802642 -7.04259354 11.97934401 -11.296875 16.37109375 C-36.83569961 40.41015517 -68.81841183 48.85915475 -103.125 48.3125 C-131.57948674 47.37854529 -158.72872504 33.4312041 -179 14 C-179.64324219 13.39671875 -180.28648437 12.7934375 -180.94921875 12.171875 C-182.34722965 10.82926314 -183.68240615 9.42161441 -185 8 C-185 7.34 -185 6.68 -185 6 C-170.86838481 1.93109413 -153.77591377 4.62984919 -140 9 C-139.09282227 9.28439941 -138.18564453 9.56879883 -137.25097656 9.86181641 C-125.91352513 13.45593429 -114.67414795 17.33706594 -103.59033203 21.65356445 C-93.3315611 25.56750082 -83.61833639 27.52361631 -72.625 27.375 C-70.98156616 27.35977295 -70.98156616 27.35977295 -69.30493164 27.34423828 C-46.31425888 26.90450268 -16.69853254 16.69853254 0 0 Z " fill="#0765B0" transform="translate(507,578)"/>
<path d="M0 0 C40.81132075 0 40.81132075 0 49.4375 8.3125 C53.48458662 13.6092536 55.59584728 19.29779337 55.28125 25.99609375 C54.3149275 32.88114155 51.14629305 38.34442927 46 43 C43.80859375 44.1953125 43.80859375 44.1953125 42 45 C43.25454908 49.05850719 44.75469542 52.65429845 46.8203125 56.36328125 C47.35527344 57.33201172 47.89023437 58.30074219 48.44140625 59.29882812 C48.99699219 60.29333984 49.55257812 61.28785156 50.125 62.3125 C51.23353722 64.30761332 52.34040552 66.30365519 53.4453125 68.30078125 C53.93531738 69.17903564 54.42532227 70.05729004 54.93017578 70.9621582 C56 73 56 73 56 74 C50.06 74 44.12 74 38 74 C35.82827844 70.04436429 33.66243074 66.08570994 31.5 62.125 C30.87996094 60.99707031 30.25992188 59.86914062 29.62109375 58.70703125 C29.03457031 57.63066406 28.44804688 56.55429687 27.84375 55.4453125 C27.29912109 54.45031738 26.75449219 53.45532227 26.19335938 52.43017578 C25 50 25 50 25 48 C21.7 48 18.4 48 15 48 C15 56.58 15 65.16 15 74 C10.05 74 5.1 74 0 74 C0 49.58 0 25.16 0 0 Z " fill="#1E1F1F" transform="translate(775,462)"/>
<path d="M0 0 C5.28 0 10.56 0 16 0 C22.14710741 16.03871061 28.18853353 32.1144166 34.1100769 48.23782349 C34.78551661 50.07607477 35.46220932 51.91386614 36.14016724 53.75119019 C37.0998349 56.35358846 38.05452311 58.95775959 39.0078125 61.5625 C39.29588272 62.34158218 39.58395294 63.12066437 39.88075256 63.9233551 C40.14585129 64.65118698 40.41095001 65.37901886 40.68408203 66.12890625 C40.91515656 66.75869385 41.14623108 67.38848145 41.38430786 68.03735352 C42.09745833 70.31066864 42.53274347 72.66371736 43 75 C37.72 75 32.44 75 27 75 C24.65688382 69.40675492 23.00591189 65.03547136 22 59 C12.76 59 3.52 59 -6 59 C-6.66 61.97 -7.32 64.94 -8 68 C-8.66 70.31 -9.32 72.62 -10 75 C-15.28 75 -20.56 75 -26 75 C-25.13444988 70.67224942 -23.94950719 66.7138449 -22.48046875 62.578125 C-22.09810059 61.48968544 -22.09810059 61.48968544 -21.70800781 60.3792572 C-20.87139594 58.00156707 -20.0296339 55.6257394 -19.1875 53.25 C-18.60641975 51.60330922 -18.02544768 49.95658026 -17.44458008 48.30981445 C-11.7402906 32.16641377 -5.8894511 16.07660975 0 0 Z " fill="#1E2020" transform="translate(1154,462)"/>
<path d="M0 0 C5.28 0 10.56 0 16 0 C18.4887969 6.69456422 20.97591439 13.38974714 23.46034336 20.08593369 C24.61491882 23.19762813 25.77034065 26.30900172 26.92700195 29.41992188 C32.43300839 44.23021187 37.85629615 59.05963814 43 74 C37.39 74 31.78 74 26 74 C22 62.375 22 62.375 22 59 C12.76 59 3.52 59 -6 59 C-6.66 61.97 -7.32 64.94 -8 68 C-8.99 70.31 -9.98 72.62 -11 75 C-16.28 75 -21.56 75 -27 75 C-24.85245175 67.58564284 -22.39105636 60.34863002 -19.7265625 53.10546875 C-19.32094086 51.99625565 -18.91531921 50.88704254 -18.49740601 49.74421692 C-17.6431843 47.4099535 -16.7875813 45.07619515 -15.93066406 42.74291992 C-14.63300053 39.20928605 -13.33956118 35.67412923 -12.046875 32.13867188 C-11.21118552 29.85667999 -10.37525578 27.57477608 -9.5390625 25.29296875 C-9.15867828 24.25399948 -8.77829407 23.21503021 -8.38638306 22.14457703 C-5.66343302 14.73438094 -2.84723411 7.36335263 0 0 Z " fill="#1D1F1F" transform="translate(1027,462)"/>
<path d="M0 0 C1.48831242 0.00667405 2.97660807 0.01863442 4.46484375 0.03515625 C5.22345703 0.03966797 5.98207031 0.04417969 6.76367188 0.04882812 C8.64326246 0.06064945 10.52281274 0.07858547 12.40234375 0.09765625 C12.83466309 1.31420898 13.26698242 2.53076172 13.71240234 3.78417969 C15.365143 8.43485394 17.01825916 13.08539466 18.67138672 17.7359314 C19.77342165 20.83662102 20.87501176 23.93746842 21.9765625 27.03833008 C25.20140927 36.11374418 28.42823777 45.1882829 31.69140625 54.25 C32.16228047 55.55956731 32.63314674 56.86913749 33.10400391 58.17871094 C33.95256696 60.53579507 34.8036958 62.8919575 35.65771484 65.24707031 C36.02719238 66.27413086 36.39666992 67.30119141 36.77734375 68.359375 C37.09445312 69.23553467 37.4115625 70.11169434 37.73828125 71.0144043 C38.40234375 73.09765625 38.40234375 73.09765625 38.40234375 75.09765625 C33.12234375 75.09765625 27.84234375 75.09765625 22.40234375 75.09765625 C21.57734375 72.82890625 20.75234375 70.56015625 19.90234375 68.22265625 C19.64130859 67.50996582 19.38027344 66.79727539 19.11132812 66.06298828 C17.40234375 61.31987847 17.40234375 61.31987847 17.40234375 59.09765625 C4.03734375 59.59265625 4.03734375 59.59265625 -9.59765625 60.09765625 C-11.24765625 65.04765625 -12.89765625 69.99765625 -14.59765625 75.09765625 C-19.54765625 75.09765625 -24.49765625 75.09765625 -29.59765625 75.09765625 C-28.47266502 67.22271765 -28.47266502 67.22271765 -27.25 63.84423828 C-26.97852142 63.08378708 -26.70704285 62.32333588 -26.42733765 61.5398407 C-26.13291779 60.73649796 -25.83849792 59.93315521 -25.53515625 59.10546875 C-25.22760406 58.24963699 -24.92005188 57.39380524 -24.60317993 56.51203918 C-23.60770195 53.74656729 -22.60287478 50.98460073 -21.59765625 48.22265625 C-20.91266386 46.32646442 -20.22825828 44.43006051 -19.54443359 42.53344727 C-18.19140556 38.78331805 -16.83490645 35.0344738 -15.47558594 31.28662109 C-13.84870469 26.79755026 -12.23769872 22.30305143 -10.63671875 17.8046875 C-10.01216797 16.05357666 -10.01216797 16.05357666 -9.375 14.26708984 C-8.62365491 12.15982156 -7.87359274 10.05209527 -7.125 7.94384766 C-6.79886719 7.03425293 -6.47273437 6.1246582 -6.13671875 5.1875 C-5.86037598 4.41269287 -5.5840332 3.63788574 -5.29931641 2.83959961 C-4.01546369 -0.34769654 -3.80636798 0.10332161 0 0 Z " fill="#1E1F20" transform="translate(660.59765625,461.90234375)"/>
<path d="M0 0 C1.39456452 0.00667256 2.78911118 0.01863093 4.18359375 0.03515625 C5.2499707 0.04192383 5.2499707 0.04192383 6.33789062 0.04882812 C8.09899388 0.06064761 9.86005411 0.07858362 11.62109375 0.09765625 C16.17563963 10.53002824 20.06062809 21.20709061 23.98681641 31.88720703 C25.11629211 34.95959489 26.24921718 38.03069254 27.3828125 41.1015625 C29.47119377 46.76366332 31.54912615 52.42953056 33.62109375 58.09765625 C33.90355957 58.86871704 34.18602539 59.63977783 34.47705078 60.4342041 C35.20589143 62.42745916 35.9302312 64.42226821 36.65234375 66.41796875 C37.03970703 67.48547363 37.42707031 68.55297852 37.82617188 69.65283203 C38.62109375 72.09765625 38.62109375 72.09765625 38.62109375 74.09765625 C33.34109375 74.09765625 28.06109375 74.09765625 22.62109375 74.09765625 C17.62109375 61.34765625 17.62109375 61.34765625 17.62109375 59.09765625 C8.71109375 59.09765625 -0.19890625 59.09765625 -9.37890625 59.09765625 C-10.36890625 62.72765625 -11.35890625 66.35765625 -12.37890625 70.09765625 C-13.03890625 71.41765625 -13.69890625 72.73765625 -14.37890625 74.09765625 C-17.2040835 74.56354172 -19.66970186 74.79381126 -22.50390625 74.84765625 C-23.25800781 74.87730469 -24.01210938 74.90695312 -24.7890625 74.9375 C-26.65176578 75.00823557 -28.5153438 75.05520608 -30.37890625 75.09765625 C-28.49291553 67.75137248 -26.25094684 60.6541413 -23.578125 53.55859375 C-23.21926712 52.59345856 -22.86040924 51.62832336 -22.49067688 50.63394165 C-21.35374007 47.57848468 -20.21042327 44.52546845 -19.06640625 41.47265625 C-17.5681778 37.46042943 -16.07282098 33.44713766 -14.578125 29.43359375 C-14.03706619 27.98409332 -14.03706619 27.98409332 -13.4850769 26.50531006 C-10.95685575 19.71293845 -8.5093318 12.89578236 -6.15788269 6.04013062 C-4.10821145 0.11873443 -4.10821145 0.11873443 0 0 Z " fill="#1D1F1F" transform="translate(868.37890625,461.90234375)"/>
<path d="M0 0 C4.95 0 9.9 0 15 0 C15 9.57 15 19.14 15 29 C19.90196463 27.17656921 19.90196463 27.17656921 22.83203125 23.69140625 C23.55737061 22.70140625 23.55737061 22.70140625 24.29736328 21.69140625 C24.7973584 20.98886719 25.29735352 20.28632813 25.8125 19.5625 C26.34601074 18.84835937 26.87952148 18.13421875 27.42919922 17.3984375 C29.82456111 14.16886637 31.98540188 11.02656088 33.92578125 7.49609375 C35.75059586 4.27854707 37.01400318 2.20525453 40 0 C45.93340441 -1.27777235 52.01969479 -0.63253228 58 0 C56.36822135 3.85357895 53.78460367 6.75964063 51.0625 9.875 C46.91693732 14.70592341 42.84244587 19.58392523 38.875 24.5625 C38.16549194 25.43720947 38.16549194 25.43720947 37.44165039 26.32958984 C34.08391366 30.23725465 34.08391366 30.23725465 33 35 C34.35778971 37.1419514 35.69466497 38.94655933 37.3125 40.875 C38.24572547 42.03466258 39.17664489 43.196184 40.10546875 44.359375 C40.58677246 44.95814453 41.06807617 45.55691406 41.56396484 46.17382812 C43.8533568 49.08519361 45.9907716 52.09896752 48.125 55.125 C48.94769916 56.28791432 49.77061341 57.45067651 50.59375 58.61328125 C50.99207031 59.17611816 51.39039063 59.73895508 51.80078125 60.31884766 C54.35931999 63.90559395 56.98388331 67.44458512 59.6015625 70.98828125 C61 73 61 73 61 74 C54.6016334 75.31444705 48.27059963 76.30008619 42 74 C35.12337608 68.45796527 30.64947589 60.3879603 26 53 C24.78197773 51.11174663 23.54820066 49.23353772 22.296875 47.3671875 C21.75901367 46.5510498 21.22115234 45.73491211 20.66699219 44.89404297 C18.95395933 42.58614524 18.95395933 42.58614524 15 42 C15 52.89 15 63.78 15 75 C10.05 75 5.1 75 0 75 C0 50.25 0 25.5 0 0 Z " fill="#212223" transform="translate(707,462)"/>
<path d="M0 0 C5.67654963 3.88602618 9.89941287 8.35407462 12 15 C12.37096865 17.32764641 12.71041578 19.66083422 13 22 C7.90250722 22.46165972 3.0818487 22.7228726 -2 22 C-4.62805043 19.72235629 -5.60556931 17.12821399 -7 14 C-10.62588373 10.77699224 -14.08921143 10.46497971 -18.7890625 10.66015625 C-22.42081053 11.21839314 -24.32598441 12.51254364 -27 15 C-32.83667334 24.12915574 -33.27057694 34.42334744 -31.25 44.9375 C-29.9440879 49.91457759 -27.72946647 53.55877794 -23.75 56.875 C-18.80466113 58.89809317 -14.68707311 58.55154313 -9.75 56.9375 C-6.13075582 54.38757797 -4.93852204 51.95160261 -3 48 C2.44693314 47.90311779 7.63904667 47.87137825 13 49 C12.64908272 55.84288701 8.94643346 61.14022635 4.140625 65.8046875 C-2.53844851 71.1746626 -9.81273201 73.66342303 -18.390625 73.34375 C-28.86394369 71.96403137 -36.3446957 66.8250342 -42.8125 58.6875 C-47.55312321 51.36509357 -48.53672467 43.10763424 -48.4375 34.5625 C-48.42992676 33.64380127 -48.42235352 32.72510254 -48.41455078 31.77856445 C-48.13056642 20.08234711 -44.44521188 11.67268995 -36.33984375 3.28125 C-26.27399123 -6.073802 -11.82901881 -6.85476475 0 0 Z " fill="#1D1F1F" transform="translate(615,465)"/>
<path d="M0 0 C4.95 0 9.9 0 15 0 C15 20.13 15 40.26 15 61 C24.9 61 34.8 61 45 61 C45 65.29 45 69.58 45 74 C30.15 74 15.3 74 0 74 C0 49.58 0 25.16 0 0 Z " fill="#1F2020" transform="translate(1078,462)"/>
<path d="M0 0 C17 0 17 0 23 4 C29.6685138 11.03898679 29.44807738 18.82039423 29.2421875 27.91796875 C28.94208575 34.48306602 27.53363671 38.87173495 22.5625 43.4375 C15.84978757 48.94883213 8.92986734 47 0 47 C0 31.49 0 15.98 0 0 Z " fill="#FBFBFB" transform="translate(1278,476)"/>
<path d="M0 0 C4.95 0 9.9 0 15 0 C15 24.75 15 49.5 15 75 C10.05 75 5.1 75 0 75 C0 50.25 0 25.5 0 0 Z " fill="#1B1D1D" transform="translate(1234,462)"/>
<path d="M0 0 C2.371875 -0.04125 4.74375 -0.0825 7.1875 -0.125 C7.92508545 -0.14320801 8.6626709 -0.16141602 9.42260742 -0.18017578 C14.81827429 -0.2253522 18.32050757 0.45668263 22.3125 4.125 C24.52394659 7.89264975 24.71733205 10.73057794 24 15 C22.8016341 17.75624156 21.87309088 19.37137456 19.4375 21.125 C15.73393246 22.45448578 12.14855941 22.20840349 8.25 22.125 C4.16625 22.063125 4.16625 22.063125 0 22 C0 14.74 0 7.48 0 0 Z " fill="#FBFBFB" transform="translate(790,475)"/>
<path d="M0 0 C2.5625 0.25 2.5625 0.25 5 1 C7.24946003 5.49892007 6.22721927 11.65202437 6.24023438 16.65795898 C6.2499479 18.92533949 6.28097393 21.19181639 6.3125 23.45898438 C6.31902942 24.89843211 6.32428014 26.33788634 6.328125 27.77734375 C6.3374707 29.08952881 6.34681641 30.40171387 6.35644531 31.75366211 C6 35 6 35 4.47949219 36.95141602 C3.99125977 37.29744873 3.50302734 37.64348145 3 38 C1.35 37.34 -0.3 36.68 -2 36 C-2.04936883 31.19451403 -2.08570443 26.38917506 -2.10986328 21.58349609 C-2.11993254 19.94805328 -2.13358881 18.31262851 -2.15087891 16.67724609 C-2.17508705 14.3290563 -2.18647357 11.98110412 -2.1953125 9.6328125 C-2.21079636 8.53273361 -2.21079636 8.53273361 -2.22659302 7.41043091 C-2.22699368 5.60537303 -2.12212755 3.8009217 -2 2 C-1.34 1.34 -0.68 0.68 0 0 Z " fill="#FEFAF0" transform="translate(409,409)"/>
<path d="M0 0 C0.66 0 1.32 0 2 0 C3.50514646 4.12314058 5.00324372 8.24880702 6.5 12.375 C7.14388672 14.1384375 7.14388672 14.1384375 7.80078125 15.9375 C8.20683594 17.05898438 8.61289063 18.18046875 9.03125 19.3359375 C9.40830078 20.37282715 9.78535156 21.4097168 10.17382812 22.47802734 C11 25 11 25 11 27 C4.4 27 -2.2 27 -9 27 C-6.03 18.09 -3.06 9.18 0 0 Z " fill="#F9F9F9" transform="translate(1161,481)"/>
<path d="M0 0 C0.66 0 1.32 0 2 0 C3.50514646 4.12314058 5.00324372 8.24880702 6.5 12.375 C7.14388672 14.1384375 7.14388672 14.1384375 7.80078125 15.9375 C8.20683594 17.05898438 8.61289063 18.18046875 9.03125 19.3359375 C9.40830078 20.37282715 9.78535156 21.4097168 10.17382812 22.47802734 C11 25 11 25 11 27 C4.4 27 -2.2 27 -9 27 C-6.38826851 17.85893979 -3.20652767 8.94507071 0 0 Z " fill="#F9F9F9" transform="translate(1034,481)"/>
<path d="M0 0 C2.32269896 2.32269896 2.87126384 4.03140489 3.9453125 7.12109375 C4.29980469 8.13880859 4.65429688 9.15652344 5.01953125 10.20507812 C5.38433594 11.27177734 5.74914062 12.33847656 6.125 13.4375 C6.68380859 15.03174805 6.68380859 15.03174805 7.25390625 16.65820312 C10 24.60980426 10 24.60980426 10 28 C3.73 28 -2.54 28 -9 28 C-8.28784357 23.72706144 -7.61459336 20.54731541 -6.15234375 16.6015625 C-5.61577148 15.14169922 -5.61577148 15.14169922 -5.06835938 13.65234375 C-4.69517578 12.65332031 -4.32199219 11.65429688 -3.9375 10.625 C-3.37192383 9.09166016 -3.37192383 9.09166016 -2.79492188 7.52734375 C-1.86799899 5.01643873 -0.93623553 2.50744426 0 0 Z " fill="#F8F9F9" transform="translate(664,480)"/>
<path d="M0 0 C2.36743836 2.36743836 3.00205177 4.27630269 4.1640625 7.41015625 C4.56367187 8.48201172 4.96328125 9.55386719 5.375 10.65820312 C5.99375 12.34333008 5.99375 12.34333008 6.625 14.0625 C7.25535156 15.75342773 7.25535156 15.75342773 7.8984375 17.47851562 C11 25.84165737 11 25.84165737 11 27 C4.4 27 -2.2 27 -9 27 C-8.29811959 23.49059794 -7.57766484 20.52994915 -6.40625 17.20703125 C-5.94412109 15.8912207 -5.94412109 15.8912207 -5.47265625 14.54882812 C-5.15167969 13.64583984 -4.83070313 12.74285156 -4.5 11.8125 C-4.17902344 10.89791016 -3.85804688 9.98332031 -3.52734375 9.04101562 C-1.14773261 2.29546523 -1.14773261 2.29546523 0 0 Z " fill="#F9F9F9" transform="translate(872,481)"/>
<path d="M0 0 C10.23 0 20.46 0 31 0 C31.66 0.66 32.32 1.32 33 2 C22.77 2 12.54 2 2 2 C2 25.43 2 48.86 2 73 C13.22 72.67 24.44 72.34 36 72 C34 74 34 74 29 75 C19.43 75 9.86 75 0 75 C0 50.25 0 25.5 0 0 Z " fill="#333434" transform="translate(1263,462)"/>
<path d="M0 0 C3.875 0.875 3.875 0.875 5 2 C5.37293902 5.95746168 4.69627278 8.09412359 2.55078125 11.3984375 C1.77250977 12.61273438 1.77250977 12.61273438 0.97851562 13.8515625 C0.15383789 15.10066406 0.15383789 15.10066406 -0.6875 16.375 C-1.48317383 17.6125 -1.48317383 17.6125 -2.29492188 18.875 C-5.40277109 23.67977301 -8.63714375 28.37061347 -12 33 C-13.65 32.67 -15.3 32.34 -17 32 C-17.94699743 29.47419542 -18.15353731 28.37198265 -17.10717773 25.83691406 C-16.63739502 25.07088867 -16.1676123 24.30486328 -15.68359375 23.515625 C-15.16603516 22.66226562 -14.64847656 21.80890625 -14.11523438 20.9296875 C-13.56158203 20.04539062 -13.00792969 19.16109375 -12.4375 18.25 C-11.64762695 16.94675781 -11.64762695 16.94675781 -10.84179688 15.6171875 C-7.50771448 10.18144974 -3.92657111 5.02361043 0 0 Z " fill="#FEFCF5" transform="translate(458,422)"/>
<path d="M0 0 C0.495 2.475 0.495 2.475 1 5 C-4.91904035 9.3726244 -11.29153618 12.93816676 -17.75 16.4375 C-18.57798096 16.89882324 -19.40596191 17.36014648 -20.2590332 17.83544922 C-21.055271 18.25971191 -21.85150879 18.68397461 -22.671875 19.12109375 C-23.3844043 19.5070874 -24.09693359 19.89308105 -24.83105469 20.29077148 C-27.55052118 21.18001621 -29.27891187 20.75357335 -32 20 C-32.33 18.35 -32.66 16.7 -33 15 C-25.49310514 10.71306766 -17.98125076 6.4298459 -10.3125 2.4375 C-9.40113281 1.96183594 -8.48976563 1.48617188 -7.55078125 0.99609375 C-4.83734927 -0.06351598 -2.88533224 -0.20275308 0 0 Z " fill="#FEFDF8" transform="translate(498,459)"/>
<path d="M0 0 C2.3269043 0.10058594 2.3269043 0.10058594 5 1 C6.94458008 3.32910156 6.94458008 3.32910156 8.76953125 6.390625 C9.43017578 7.49277344 10.09082031 8.59492188 10.77148438 9.73046875 C11.10623779 10.30845215 11.44099121 10.88643555 11.78588867 11.48193359 C12.80771353 13.24175658 13.85737368 14.9824039 14.91210938 16.72265625 C20.6468103 26.42927319 20.6468103 26.42927319 20 31 C19.34 31.66 18.68 32.32 18 33 C15.50116387 32.80088955 14.35551145 32.38633614 12.6484375 30.53125 C11.08086645 28.03082991 9.52832588 25.52478154 8 23 C7.11866366 21.59884883 6.23713863 20.19781632 5.35546875 18.796875 C4.42275174 17.28231245 3.49177334 15.76667788 2.5625 14.25 C2.10085449 13.51716797 1.63920898 12.78433594 1.16357422 12.02929688 C-2.03623314 6.70236557 -2.03623314 6.70236557 -1.84765625 3.046875 C-1 1 -1 1 0 0 Z " fill="#FEFCF5" transform="translate(360,422)"/>
<path d="M0 0 C3.88155841 0.47132604 6.7949664 1.7714941 10.1953125 3.65234375 C11.15824219 4.18150391 12.12117188 4.71066406 13.11328125 5.25585938 C14.10714844 5.81080078 15.10101563 6.36574219 16.125 6.9375 C17.62740234 7.76411133 17.62740234 7.76411133 19.16015625 8.60742188 C22.85271476 10.64700285 26.48869305 12.6591287 30 15 C30.3125 17.5 30.3125 17.5 30 20 C29.34 20.66 28.68 21.32 28 22 C24.4518188 21.60949531 21.52872119 19.80842733 18.4296875 18.12890625 C17.36878906 17.55462891 16.30789063 16.98035156 15.21484375 16.38867188 C14.11269531 15.78603516 13.01054687 15.18339844 11.875 14.5625 C10.76511719 13.96373047 9.65523438 13.36496094 8.51171875 12.74804688 C0.26078521 8.26078521 0.26078521 8.26078521 -2 6 C-1.44444444 1.44444444 -1.44444444 1.44444444 0 0 Z " fill="#FEFCF5" transform="translate(325,459)"/>
<path d="M0 0 C2.91368224 1.98378365 4.63558769 3.41448681 5.4453125 6.9375 C5.64891198 10.52085078 5.12565891 12.73775531 3.5625 16 C0.306419 18.54133151 -1.81465693 18.73050747 -5.87109375 18.4765625 C-8 18 -8 18 -10.5625 16 C-12.40251016 12.15997879 -12.96007379 9.17716314 -12 5 C-8.64524049 0.12034981 -5.82662873 -1.04046942 0 0 Z " fill="#1C1D1E" transform="translate(1216,519)"/>
<path d="M0 0 C0.33 0 0.66 0 1 0 C1.33 6.6 1.66 13.2 2 20 C2.33 20 2.66 20 3 20 C3 33.53 3 47.06 3 61 C-1.95 61 -6.9 61 -12 61 C-12 56.38 -12 51.76 -12 47 C-11.67 47 -11.34 47 -11 47 C-10.67 50.63 -10.34 54.26 -10 58 C-6.7 58 -3.4 58 0 58 C0 38.86 0 19.72 0 0 Z " fill="#262728" transform="translate(1246,476)"/>
<path d="M0 0 C0.66 0.33 1.32 0.66 2 1 C2.33 2.65 2.66 4.3 3 6 C-2.28 6 -7.56 6 -13 6 C-13.33 5.01 -13.66 4.02 -14 3 C-13.34 2.34 -12.68 1.68 -12 1 C-12 1.66 -12 2.32 -12 3 C-6.06 2.505 -6.06 2.505 0 2 C0 1.34 0 0.68 0 0 Z " fill="#333334" transform="translate(1194,531)"/>
<path d="M0 0 C1.87939453 -0.34057617 1.87939453 -0.34057617 4.1328125 -0.29296875 C4.93847656 -0.28330078 5.74414062 -0.27363281 6.57421875 -0.26367188 C7.41597656 -0.23853516 8.25773438 -0.21339844 9.125 -0.1875 C9.97449219 -0.17396484 10.82398438 -0.16042969 11.69921875 -0.14648438 C13.79974837 -0.11108219 15.89995293 -0.05727401 18 0 C16.63016497 3.16115776 16.0109362 3.9927092 13 6 C13.33 5.01 13.66 4.02 14 3 C13.09636719 3 12.19273437 3 11.26171875 3 C6.84114583 3 2.42057292 3 -2 3 C-1.34 2.01 -0.68 1.02 0 0 Z " fill="#19191A" transform="translate(747,462)"/>
<path d="M0 0 C0.33 0.66 0.66 1.32 1 2 C2.95803507 2.05389087 4.91648909 2.09274217 6.875 2.125 C7.96554687 2.14820313 9.05609375 2.17140625 10.1796875 2.1953125 C13.1371051 2.30060534 13.1371051 2.30060534 15 0 C14.67 1.65 14.34 3.3 14 5 C8.72 5 3.44 5 -2 5 C-1.34 3.35 -0.68 1.7 0 0 Z " fill="#383939" transform="translate(1002,532)"/>
<path d="M0 0 C5.28 0 10.56 0 16 0 C16.33 2.31 16.66 4.62 17 7 C15 4 15 4 14 2 C10.04 2 6.08 2 2 2 C1.67 2.66 1.34 3.32 1 4 C0.67 2.68 0.34 1.36 0 0 Z " fill="#050606" transform="translate(903,462)"/>
<path d="M0 0 C0 0.66 0 1.32 0 2 C-5.28 2 -10.56 2 -16 2 C-16 1.34 -16 0.68 -16 0 C-13.7089095 -0.19441368 -11.41709663 -0.38033135 -9.125 -0.5625 C-7.21074219 -0.71912109 -7.21074219 -0.71912109 -5.2578125 -0.87890625 C-2 -1 -2 -1 0 0 Z " fill="#3E3E3F" transform="translate(699,535)"/>
<path d="M0 0 C0 5.18481607 -3.92584611 9.00359995 -7 13 C-7.66 12.67 -8.32 12.34 -9 12 C-7.87749844 10.37327315 -6.75191267 8.74867418 -5.625 7.125 C-4.68527344 5.76761719 -4.68527344 5.76761719 -3.7265625 4.3828125 C-2 2 -2 2 0 0 Z " fill="#FDB512" transform="translate(320,426)"/>
<path d="M0 0 C0.33 0.66 0.66 1.32 1 2 C0.06398754 3.41764994 -0.8738792 4.83407568 -1.8125 6.25 C-2.33457031 7.03890625 -2.85664063 7.8278125 -3.39453125 8.640625 C-4.87134122 10.81092481 -6.40689873 12.91413768 -8 15 C-7.43928208 11.04693863 -6.27794197 8.51358993 -4 5.25 C-3.46375 4.47140625 -2.9275 3.6928125 -2.375 2.890625 C-1 1 -1 1 0 0 Z " fill="#FD7C12" transform="translate(373,480)"/>
<path d="M0 0 C0.33 0.66 0.66 1.32 1 2 C0.00390625 3.9453125 0.00390625 3.9453125 -1.4375 6.125 C-1.91058594 6.84945312 -2.38367188 7.57390625 -2.87109375 8.3203125 C-3.24363281 8.87460937 -3.61617187 9.42890625 -4 10 C-4.33 9.34 -4.66 8.68 -5 8 C-4.67 7.34 -4.34 6.68 -4 6 C-4.66 5.34 -5.32 4.68 -6 4 C-4.02 2.68 -2.04 1.36 0 0 Z " fill="#056ACB" transform="translate(518,561)"/>
<path d="M0 0 C1.64956143 2.96921058 2.66052758 5.60527583 3 9 C2.015625 11.15625 2.015625 11.15625 1 13 C0.63631108 11.39796533 0.28438048 9.79325797 -0.0625 8.1875 C-0.25972656 7.29417969 -0.45695313 6.40085937 -0.66015625 5.48046875 C-1 3 -1 3 0 0 Z " fill="#272828" transform="translate(925,485)"/>
<path d="M0 0 C6.93 0.495 6.93 0.495 14 1 C14 1.33 14 1.66 14 2 C10.04 2 6.08 2 2 2 C1.67 2.66 1.34 3.32 1 4 C0.67 2.68 0.34 1.36 0 0 Z " fill="#101111" transform="translate(903,462)"/>
</svg>
